# xmcd
#
# Track frame offsets:
#	150
#	22088
#	43893
#	67883
#	90584
#	112039
#	132243
#	153128
#	172001
#	195250
#	213890
#
# Disc length: 3068 seconds
#
# Revision: 0
# Processed by: cddbd v1.5PL3 Copyright (c) Steve Scherf et al.
# Submitted via: dBpowerAMP V4.0
#
DISCID=8f0bfa0b
DTITLE=Roger Guth - Scotch
DYEAR=1900
DGENRE=Blues
TTITLE0=Blue Guitar
TTITLE1=Spider Song
TTITLE2=One of those Things
TTITLE3=Ruby's Restless Heart Lounge
TTITLE4=Mississippi Queen
TTITLE5=The Bones of Angels
TTITLE6=A Time Like This
TTITLE7=All Day All Night
TTITLE8=Strange Invention
TTITLE9=The More Things Change
TTITLE10=Put Your Love On
EXTD=
EXTT0=
EXTT1=
EXTT2=
EXTT3=
EXTT4=
EXTT5=
EXTT6=
EXTT7=
EXTT8=
EXTT9=
EXTT10=
PLAYORDER=
